# xmcd
#
# Track frame offsets:
#	150
#	11870
#	26165
#	35295
#	52432
#	60362
#	73550
#	83927
#	93080
#	109945
#	122542
#	133122
#	143455
#	160330
#	177705
#	186217
#	197200
#	212947
#	222800
#	233915
#
# Disc length: 3260 seconds
#
# Revision: 1
# Processed by: cddbd v1.5.1PL0 Copyright (c) Steve Scherf et al.
# Submitted via: EasyCDDAExtractor 7.0.6.1
#
DISCID=2a0cba14
DTITLE=Various Artist - 20 Truck Driving Country Favorites
DYEAR=1900
DGENRE=Truckin'
TTITLE0=Nev Nicholls - Supertrucker
TTITLE1=Johnny Chester - Once I Was A Truck Drivin' Man 
TTITLE2=Reg Lindsay - Six Days On The Road 
TTITLE3=The Hawking Brothers - Me And Bobby McGee 
TTITLE4=Bobby and Laurie - Trouble On The Turnpike 
TTITLE5=Ken Brumby - Maggie (Theme From The Truckies)
TTITLE6=Jim Brumby - A Truckie Headin' Home 
TTITLE7=Lee Conway - Truck Drivin' Man 
TTITLE8=Bluestone - Road To Nowhere 
TTITLE9=Reg Lindsay - Sixteen Tons 
TTITLE10=Reg Lindsay - On the Road Again 
TTITLE11=Lee Conway - The Road Is Far 
TTITLE12=Johnny Chester - Gotta get Back To Tamworth 
TTITLE13=Lester Coombe - Wolf Creek Pass 
TTITLE14=Nev Nicholls - When The Big Rigs Roll
TTITLE15=The Hawking Brothers - Truck Drivers Lament 
TTITLE16=Johnny Chester - Highway 31
TTITLE17=The Hawking Brothers - So Near Yet So Far
TTITLE18=Nev Nicholls - Blazing Diesels
TTITLE19=Lee Conway - King Of The Road 
EXTD=
EXTT0=
EXTT1=
EXTT2=
EXTT3=
EXTT4=
EXTT5=
EXTT6=
EXTT7=
EXTT8=
EXTT9=
EXTT10=
EXTT11=
EXTT12=
EXTT13=
EXTT14=
EXTT15=
EXTT16=
EXTT17=
EXTT18=
EXTT19=
PLAYORDER=
